M48
; DRILL file {KiCad (5.1.4)-1} date 10/1/2019 9:11:22 PM
; FORMAT={-:-/ absolute / inch / decimal}
; #@! TF.CreationDate,2019-10-01T21:11:22-04:00
; #@! TF.GenerationSoftware,Kicad,Pcbnew,(5.1.4)-1
; #@! TF.FileFunction,Plated,1,2,PTH
FMAT,2
INCH
T1C0.0394
%
G90
G05
T1
X2.81Y-2.1
X2.91Y-2.1
X3.01Y-2.1
X2.38Y-1.05
X2.48Y-1.05
X2.58Y-1.05
X1.95Y-2.1
X2.05Y-2.1
X2.15Y-2.1
X1.95Y-1.27
X1.95Y-1.37
X1.95Y-1.47
X2.38Y-2.1
X2.48Y-2.1
X2.58Y-2.1
X1.95Y-1.05
X2.05Y-1.05
X2.15Y-1.05
X3.44Y-1.48
X3.44Y-1.58
X3.44Y-1.68
X3.24Y-1.05
X3.34Y-1.05
X3.44Y-1.05
X1.95Y-1.68
X1.95Y-1.78
X1.95Y-1.88
X3.24Y-2.1
X3.34Y-2.1
X3.44Y-2.1
X2.81Y-1.05
X2.91Y-1.05
X3.01Y-1.05
T0
M30
